HIERARCHY
ROOT ui
{
	 OFFSET 0 0 0
	 CHANNELS 3 XPosition YPosition Z Position
	 EndSite
	 {
	 OFFSET 0 -1 0
	 }
}
ROOT li
{
	 OFFSET 0 0 0
	 CHANNELS 3 XPosition YPosition Z Position
	 EndSite
	 {
	 OFFSET 0 -1 0
	 }
}
ROOT ul
{
	 OFFSET 0 0 0
	 CHANNELS 3 XPosition YPosition Z Position
	 EndSite
	 {
	 OFFSET 0 -1 0
	 }
}
ROOT ll
{
	 OFFSET 0 0 0
	 CHANNELS 3 XPosition YPosition Z Position
	 EndSite
	 {
	 OFFSET 0 -1 0
	 }
}
ROOT tt
{
	 OFFSET 0 0 0
	 CHANNELS 3 XPosition YPosition Z Position
	 EndSite
	 {
	 OFFSET 0 -1 0
	 }
}
ROOT tb
{
	 OFFSET 0 0 0
	 CHANNELS 3 XPosition YPosition Z Position
	 EndSite
	 {
	 OFFSET 0 -1 0
	 }
}
ROOT td
{
	 OFFSET 0 0 0
	 CHANNELS 3 XPosition YPosition Z Position
	 EndSite
	 {
	 OFFSET 0 -1 0
	 }
}
ROOT v
{
	 OFFSET 0 0 0
	 CHANNELS 3 XPosition YPosition Z Position
	 EndSite
	 {
	 OFFSET 0 -1 0
	 }
}
ROOT bn
{
	 OFFSET 0 0 0
	 CHANNELS 3 XPosition YPosition Z Position
	 EndSite
	 {
	 OFFSET 0 -1 0
	 }
}
MOTION
Frames: 21
Frame Time: 0.002
0.012033166885375977	0.0061500477790832515	0		0.5083919372558594	-2.384859130859375	0		-0.925443603515625	0.12397736358642578	0		-0.88272607421875	-2.310834228515625	0		2.65993017578125	-0.3120792541503906	0		4.17484130859375	-0.255784423828125	0		5.33599658203125	-0.3986719970703125	0		6.011935546875	0.5431752319335937	0		-0.18322711181640625	5.91337158203125	0		
0.007982244968414307	0.0028973309993743897	0		0.452521240234375	-2.381384033203125	0		-1.0094371948242187	0.1257781219482422	0		-0.8846864624023437	-2.314149169921875	0		2.7130771484375	-0.30200662231445313	0		4.17484130859375	-0.25592898559570315	0		5.3459599609375	-0.40190716552734373	0		6.011904296875	0.5431025390625	0		-0.16453868103027344	5.9077978515625	0		
0.00494296407699585	-0.0013585489988327025	0		0.5045103454589843	-2.39037109375	0		-0.99855029296875	0.11629489135742188	0		-0.8825457153320313	-2.311506591796875	0		2.718442626953125	-0.2772742919921875	0		4.2177392578125	-0.26565625	0		5.36597412109375	-0.403279296875	0		6.01189892578125	0.5430267333984375	0		-0.19881985473632813	5.90195703125	0		
0.004984010219573975	-0.0016439969539642333	0		0.4237496643066406	-2.38154150390625	0		-0.9985133056640625	0.11597484588623047	0		-0.8803980712890624	-2.309849853515625	0		2.75659814453125	-0.26998223876953126	0		4.2128984375	-0.2577294006347656	0		5.3849462890625	-0.40963705444335935	0		6.016798828125	0.5338814086914062	0		-0.18284815979003907	5.91144677734375	0		
0.013036189079284667	-0.0030248389244079588	0		0.4627671813964844	-2.39132763671875	0		-0.985302978515625	0.12649305725097656	0		-0.9032689819335937	-2.31083984375	0		2.76118701171875	-0.2322241973876953	0		4.24511865234375	-0.24730096435546875	0		5.4091044921875	-0.40406231689453126	0		6.0250771484375	0.55069189453125	0		-0.14989338684082032	5.91672119140625	0		
0.012233538627624512	0.004729559898376465	0		0.42810614013671877	-2.378101318359375	0		-0.9852175903320313	0.12620500183105468	0		-0.87097900390625	-2.301558349609375	0		2.813602294921875	-0.20910498046875	0		4.26309228515625	-0.2566756591796875	0		5.41919140625	-0.4052951049804687	0		6.01615087890625	0.5507337646484375	0		-0.16412734985351562	5.90564794921875	0		
0.00830022144317627	0.0015408400297164918	0		0.4801788330078125	-2.38603271484375	0		-0.9982611694335938	0.11511103820800782	0		-0.906752197265625	-2.297340576171875	0		2.84279296875	-0.2036626434326172	0		4.29127099609375	-0.2521802215576172	0		5.4310791015625	-0.4225505981445313	0		6.01213525390625	0.5427092895507812	0		-0.19825933837890625	5.89985888671875	0		
-0.0175803165435791	0.0016640839576721191	0		0.45135748291015626	-2.385857421875	0		-0.9981468505859376	0.11485982513427734	0		-0.8665819702148437	-2.29812744140625	0		2.876288818359375	-0.17626535034179688	0		4.2704365234375	-0.249018798828125	0		5.4483935546875	-0.408873046875	0		6.01713134765625	0.5345645751953125	0		-0.19828776550292967	5.89962744140625	0		
-0.02050064468383789	-0.001505089044570923	0		0.4515296325683594	-2.386056884765625	0		-1.05621240234375	0.10140847015380859	0		-0.930406005859375	-2.29749658203125	0		2.902490478515625	-0.17076107788085937	0		4.30043798828125	-0.2585362548828125	0		5.4585078125	-0.4100968322753906	0		6.0172255859375	0.5334874877929687	0		-0.14811422729492188	5.9127412109375	0		
-0.017343626022338868	0.0012623059749603271	0		0.4376803283691406	-2.38705224609375	0		-0.9620252685546875	0.10593579864501954	0		-0.87227685546875	-2.300483642578125	0		2.9250244140625	-0.14019480895996095	0		4.338865234375	-0.2361569061279297	0		5.47577880859375	-0.39941265869140624	0		6.0304384765625	0.5412362670898437	0		-0.18021504211425782	5.90497607421875	0		
-0.0052047262191772465	0.002927299976348877	0		0.4678296813964844	-2.38762060546875	0		-1.0328538818359374	0.11069656372070312	0		-0.9060294799804688	-2.293217041015625	0		2.931675048828125	-0.10040502166748047	0		4.3269296875	-0.24009916687011718	0		5.48180419921875	-0.4065771789550781	0		6.01355810546875	0.5423880615234375	0		-0.14809364318847656	5.9123701171875	0		
0.008878835678100586	5.841270089149475E-4	0		0.45402716064453125	-2.383583740234375	0		-0.9699098510742188	0.09768545532226562	0		-0.8428802490234375	-2.2932275390625	0		2.954053466796875	-0.08081890106201171	0		4.32115185546875	-0.23211924743652343	0		5.4778544921875	-0.4116077880859375	0		6.01266259765625	0.5423237915039063	0		-0.19626881408691407	5.89685595703125	0		
0.008992242813110351	4.4568398594856264E-4	0		0.45212301635742186	-2.38669091796875	0		-1.040737548828125	0.10248651885986328	0		-0.9057530517578125	-2.293531982421875	0		2.980379150390625	-0.06527865600585937	0		4.35115771484375	-0.24061749267578125	0		5.48383740234375	-0.42177420043945313	0		5.9967724609375	0.54245556640625	0		-0.19621076965332032	5.89671533203125	0		
0.006056803226470947	-0.003635462999343872	0		0.45225360107421875	-2.38681005859375	0		-0.96968017578125	0.09741096496582032	0		-0.867653076171875	-2.296166015625	0		2.987803955078125	-0.04247985076904297	0		4.3573701171875	-0.23379652404785156	0		5.505236328125	-0.4011488037109375	0		6.0056591796875	0.5252474365234375	0		-0.22822877502441405	5.88902099609375	0		
0.009232728958129884	2.18858003616333E-4	0		0.4274482421875	-2.381581298828125	0		-1.0245660400390626	0.09703946685791015	0		-0.9353478393554687	-2.282364990234375	0		3.039322998046875	-0.013265563011169433	0		4.36949169921875	-0.23405685424804687	0		5.51534521484375	-0.40238095092773435	0		6.014994140625	0.5410277709960938	0		-0.17990362548828126	5.90427294921875	0		
0.009359165191650391	1.2976300716400146E-4	0		0.456565185546875	-2.38205908203125	0		-1.024439208984375	0.096953369140625	0		-0.882299560546875	-2.2881591796875	0		3.042689697265625	0.004594860076904297	0		4.3856962890625	-0.22837294006347655	0		5.52318896484375	-0.42359103393554687	0		6.0172421875	0.5498937377929688	0		-0.1938924560546875	5.8943720703125	0		
-0.01651142120361328	4.044089913368225E-4	0		0.42565216064453126	-2.383720458984375	0		-1.01837890625	0.09180762481689453	0		-0.88218798828125	-2.28822607421875	0		3.07988037109375	0.009006184577941894	0		4.40088720703125	-0.22367657470703126	0		5.5233134765625	-0.42370138549804687	0		6.022265625	0.5417138671875	0		-0.1596749725341797	5.897845703125	0		
0.009610293388366699	-8.70000003487803E-8	0		0.47967971801757814	-2.389503662109375	0		-1.027360107421875	0.083882568359375	0		-0.8899531860351563	-2.27816748046875	0		3.0873115234375	0.031821693420410156	0		4.38307763671875	-0.21853866577148437	0		5.5334189453125	-0.4249492492675781	0		6.01339599609375	0.5417149658203125	0		-0.2276173858642578	5.888701171875	0		
-0.019309484481811523	-0.002652184009552002	0		0.42379669189453123	-2.386801025390625	0		-1.0213087158203125	0.07877601623535156	0		-0.9159043579101562	-2.280847412109375	0		3.100482177734375	0.03556438446044922	0		4.3831923828125	-0.21863919067382812	0		5.53353076171875	-0.42506549072265626	0		6.018400390625	0.5325260009765626	0		-0.1923821258544922	5.89119482421875	0		
0.009837523460388183	-6.5481998026371E-5	0		0.46478277587890626	-2.3933818359375	0		-1.0120914916992187	0.08664693450927734	0		-0.9398436279296875	-2.281534912109375	0		3.09287451171875	0.05659442901611328	0		4.42033544921875	-0.21623207092285157	0		5.5566845703125	-0.42148959350585935	0		6.03162451171875	0.5402277221679688	0		-0.17505679321289064	5.89994482421875	0		
-0.008966854095458984	0.007180891036987305	0		0.43205612182617187	-2.37695654296875	0		-1.0079500732421875	0.089603759765625	0		-0.857806884765625	-2.28362646484375	0		3.1151884765625	0.07223219299316407	0		4.40737841796875	-0.22014710998535156	0		5.5527236328125	-0.42554656982421873	0		6.02297705078125	0.55822705078125	0		-0.15788925170898438	5.8967119140625	0		
